Coordinates
version=1
nRows=41
nColumns=38
inDegrees=no

Units are S.I. units (second, meters, Newtons, ...)
If the header above contains a line with 'inDegrees', this indicates whether rotational values are in degrees (yes) or radians (no).

endheader
time	pelvis_tilt	pelvis_list	pelvis_rotation	pelvis_tx	pelvis_ty	pelvis_tz	hip_flexion_r	hip_adduction_r	hip_rotation_r	knee_angle_r	ankle_angle_r	subtalar_angle_r	mtp_angle_r	hip_flexion_l	hip_adduction_l	hip_rotation_l	knee_angle_l	ankle_angle_l	subtalar_angle_l	mtp_angle_l	lumbar_extension	lumbar_bending	lumbar_rotation	arm_flex_r	arm_add_r	arm_rot_r	elbow_flex_r	pro_sup_r	wrist_flex_r	wrist_dev_r	arm_flex_l	arm_add_l	arm_rot_l	elbow_flex_l	pro_sup_l	wrist_flex_l	wrist_dev_l
0	0.0631424	1.13143	1.65336	1.02125	-0.776678	1.01826	0.626099	-0.239953	-0.152765	1.19814	-0.661954	0	0	0.705257	0.0942958	0.137842	0.518752	-0.11453	0	0	0.70699	0.0528361	-0.0789808	0.24547	-0.384605	0.652456	1.13676	0.671508	0	0	-0.277761	-0.423468	-0.196001	1.25065	0.85287	0	0
0.01	0.0686403	1.13045	1.64689	1.01965	-0.766662	1.01991	0.658406	-0.234943	-0.136787	1.2282	-0.633613	0	0	0.69205	0.0914076	0.138495	0.510648	-0.11408	0	0	0.705619	0.0563203	-0.0806937	0.246791	-0.383672	0.652146	1.13409	0.671027	0	0	-0.273702	-0.421243	-0.196279	1.24657	0.850826	0	0
0.02	0.0809271	1.13341	1.63393	1.01805	-0.755861	1.0223	0.682066	-0.224894	-0.123971	1.24819	-0.601741	0	0	0.675723	0.0845116	0.133696	0.507327	-0.112925	0	0	0.703224	0.0567116	-0.0873555	0.247969	-0.372428	0.647972	1.11847	0.675877	0	0	-0.277142	-0.420818	-0.201597	1.24997	0.85427	0	0
0.03	0.0996979	1.09845	1.63352	1.01404	-0.745783	1.01946	0.743025	-0.22905	-0.127336	1.27119	-0.561971	0	0	0.702786	0.0939944	0.165779	0.510502	-0.112833	0	0	0.750326	0.0567328	-0.103786	0.235173	-0.389991	0.656468	1.14109	0.663399	0	0	-0.287462	-0.419504	-0.197605	1.2494	0.850348	0	0
0.04	0.113694	1.09996	1.62191	1.01218	-0.734899	1.02168	0.765571	-0.220083	-0.120396	1.27884	-0.550379	0	0	0.688204	0.0880353	0.163931	0.508797	-0.112775	0	0	0.748105	0.0617554	-0.108909	0.234603	-0.390843	0.656168	1.13909	0.662307	0	0	-0.283815	-0.417797	-0.19512	1.24465	0.851927	0	0
0.05	0.126997	1.10235	1.60957	1.01062	-0.724122	1.02398	0.786773	-0.209897	-0.112277	1.28281	-0.528453	0	0	0.671869	0.0803282	0.157569	0.504298	-0.113009	0	0	0.744497	0.0683043	-0.112937	0.235227	-0.391878	0.656621	1.13683	0.661133	0	0	-0.2788	-0.414694	-0.19333	1.23875	0.852745	0	0
0.06	0.139151	1.10518	1.59675	1.00939	-0.713382	1.02629	0.806795	-0.198408	-0.103285	1.2827	-0.495591	0	0	0.654237	0.0710886	0.146314	0.497019	-0.114042	0	0	0.740017	0.0753847	-0.115516	0.236757	-0.392717	0.657923	1.13401	0.659752	0	0	-0.273558	-0.412535	-0.191108	1.23194	0.85572	0	0
0.07	0.149473	1.10901	1.58541	1.00824	-0.702786	1.02865	0.824599	-0.187743	-0.095243	1.27856	-0.453931	0	0	0.635747	0.0624132	0.133312	0.489678	-0.116294	0	0	0.733763	0.0820065	-0.116857	0.239295	-0.393595	0.659733	1.13077	0.657764	0	0	-0.267337	-0.409584	-0.189783	1.22538	0.857884	0	0
0.08	0.15789	1.11146	1.57661	1.00698	-0.692395	1.03075	0.842505	-0.179415	-0.0892651	1.27048	-0.414759	0	0	0.618785	0.0554004	0.121899	0.482195	-0.119433	0	0	0.728507	0.0869492	-0.118045	0.241714	-0.394459	0.661144	1.12809	0.655777	0	0	-0.261948	-0.407509	-0.18841	1.2207	0.858952	0	0
0.09	0.163633	1.1127	1.5701	1.00575	-0.682132	1.03259	0.860912	-0.172459	-0.0844252	1.25841	-0.377727	0	0	0.602752	0.0493897	0.109974	0.473633	-0.123375	0	0	0.724435	0.0909075	-0.118247	0.243839	-0.395383	0.662174	1.12603	0.653803	0	0	-0.257236	-0.405721	-0.187191	1.21709	0.859264	0	0
0.1	0.167108	1.11363	1.56472	1.00471	-0.671914	1.03418	0.878942	-0.165553	-0.0806019	1.24063	-0.34597	0	0	0.587002	0.0439753	0.0977201	0.465266	-0.127228	0	0	0.720534	0.0946964	-0.117019	0.246156	-0.396288	0.663187	1.12431	0.651885	0	0	-0.252819	-0.404556	-0.185639	1.21409	0.859471	0	0
0.11	0.161934	1.1134	1.56657	1.00379	-0.662037	1.03509	0.903453	-0.169878	-0.0659516	1.21592	-0.338913	0	0	0.572836	0.0430389	0.0868078	0.45803	-0.129725	0	0	0.716638	0.0954719	-0.112981	0.249382	-0.396858	0.664378	1.1238	0.649715	0	0	-0.248968	-0.404859	-0.184587	1.21355	0.85843	0	0
0.12	0.167871	1.11396	1.55828	1.00298	-0.651824	1.03636	0.914606	-0.153805	-0.0727943	1.19304	-0.304297	0	0	0.557785	0.0368045	0.077109	0.451217	-0.131986	0	0	0.712812	0.100586	-0.111336	0.251126	-0.398378	0.664174	1.12327	0.647817	0	0	-0.244366	-0.404034	-0.182035	1.21135	0.857724	0	0
0.13	0.158203	1.10541	1.56881	1.00146	-0.642962	1.03551	0.94935	-0.165259	-0.0572132	1.16135	-0.31391	0	0	0.554958	0.0427319	0.078052	0.447418	-0.133041	0	0	0.718058	0.0968919	-0.109151	0.25287	-0.400809	0.664448	1.12725	0.644355	0	0	-0.242504	-0.406584	-0.179587	1.2144	0.856788	0	0
0.14	0.16527	1.09823	1.56501	1.00003	-0.633431	1.03533	0.96392	-0.152462	-0.0707143	1.1359	-0.271184	0	0	0.550766	0.0406073	0.0798358	0.444708	-0.133694	0	0	0.724548	0.0989607	-0.112448	0.253489	-0.403424	0.664385	1.13018	0.638258	0	0	-0.24068	-0.406979	-0.176208	1.21463	0.856817	0	0
0.15	0.162902	1.08999	1.56984	0.998709	-0.624216	1.03439	0.986675	-0.152189	-0.0694618	1.10252	-0.25618	0	0	0.548403	0.0431714	0.081225	0.443274	-0.133031	0	0	0.731198	0.0977498	-0.11372	0.255464	-0.406649	0.666949	1.13337	0.637614	0	0	-0.239642	-0.409145	-0.17345	1.21641	0.856374	0	0
0.16	0.16094	1.08194	1.57454	0.997479	-0.614998	1.03331	1.00744	-0.151567	-0.0681597	1.06679	-0.242663	0	0	0.546319	0.0453344	0.0826032	0.443232	-0.131895	0	0	0.737782	0.0955134	-0.115598	0.25799	-0.408421	0.668752	1.13772	0.628307	0	0	-0.239796	-0.411199	-0.17252	1.21991	0.85346	0	0
0.17	0.159935	1.07456	1.57809	0.996343	-0.605702	1.03216	1.0256	-0.150068	-0.0665769	1.02954	-0.228233	0	0	0.544022	0.0465128	0.0821675	0.444688	-0.130269	0	0	0.743344	0.0948315	-0.117538	0.260925	-0.411662	0.671964	1.1413	0.625877	0	0	-0.23908	-0.412426	-0.171552	1.22197	0.85094	0	0
0.18	0.162081	1.06877	1.5788	0.995185	-0.596132	1.03144	1.03784	-0.147249	-0.065235	0.985734	-0.214059	0	0	0.53999	0.0458791	0.080311	0.445126	-0.130587	0	0	0.747278	0.0911149	-0.112345	0.255619	-0.41505	0.663327	1.14555	0.624045	0	0	-0.23209	-0.416607	-0.162066	1.22541	0.849621	0	0
0.19	0.160157	1.06242	1.58361	0.994187	-0.58665	1.02983	1.05072	-0.146211	-0.0602331	0.943352	-0.198377	0	0	0.537909	0.0469813	0.076907	0.448756	-0.128894	0	0	0.751972	0.0929376	-0.119485	0.262487	-0.415677	0.668835	1.14941	0.623744	0	0	-0.234682	-0.416877	-0.164854	1.22492	0.845611	0	0
0.2	0.174979	1.09222	1.55827	0.994643	-0.575227	1.03359	1.01572	-0.12487	-0.0566452	0.884009	-0.180288	0	0	0.492899	0.0277132	0.040068	0.445545	-0.128479	0	0	0.709216	0.110804	-0.1149	0.278333	-0.415343	0.673244	1.14177	0.623759	0	0	-0.218089	-0.410245	-0.164697	1.21355	0.843268	0	0
0.21	0.177757	1.0948	1.5551	0.994039	-0.56495	1.03316	1.01241	-0.118112	-0.0504633	0.832442	-0.163126	0	0	0.480833	0.0231105	0.0269709	0.448599	-0.128307	0	0	0.702274	0.11387	-0.115545	0.282949	-0.415978	0.673585	1.14373	0.624088	0	0	-0.214619	-0.409889	-0.165084	1.2135	0.843103	0	0
0.22	0.181334	1.0954	1.55108	0.993555	-0.554585	1.03233	1.00907	-0.11051	-0.0425871	0.777322	-0.14354	0	0	0.471515	0.0177555	0.0141008	0.453468	-0.127768	0	0	0.69871	0.116925	-0.116172	0.28717	-0.416833	0.673966	1.14642	0.620302	0	0	-0.212488	-0.40995	-0.165379	1.21449	0.841367	0	0
0.23	0.200391	1.05726	1.55388	0.990884	-0.547118	1.02629	1.045	-0.115588	-0.0456277	0.723853	-0.124692	0	0	0.514482	0.0202539	0.0584017	0.477295	-0.116075	0	0	0.7469	0.113609	-0.140285	0.283628	-0.42576	0.680681	1.15882	0.615182	0	0	-0.224085	-0.411906	-0.164913	1.22371	0.836691	0	0
0.24	0.204284	1.05073	1.55196	0.990279	-0.536827	1.02434	1.04616	-0.10995	-0.0380101	0.666461	-0.106582	0	0	0.513749	0.0167081	0.0560499	0.4844	-0.113904	0	0	0.754264	0.115423	-0.143341	0.285134	-0.427981	0.68235	1.1624	0.613058	0	0	-0.22491	-0.412767	-0.163847	1.22556	0.833564	0	0
0.25	0.207926	1.0449	1.5497	0.989767	-0.526306	1.02243	1.04435	-0.103916	-0.0299372	0.605708	-0.090559	0	0	0.512007	0.0128188	0.0530549	0.491343	-0.11194	0	0	0.760993	0.117455	-0.145406	0.285881	-0.430087	0.68293	1.16586	0.611363	0	0	-0.225769	-0.413692	-0.162689	1.22737	0.830303	0	0
0.26	0.212877	1.04024	1.54757	0.989072	-0.515625	1.0206	1.0381	-0.0987356	-0.0223936	0.54037	-0.0786738	0	0	0.509239	0.00910028	0.053375	0.498401	-0.110535	0	0	0.766504	0.118982	-0.148753	0.287214	-0.431944	0.683244	1.16944	0.606758	0	0	-0.226585	-0.414544	-0.161673	1.22918	0.828664	0	0
0.27	0.22001	1.03622	1.54545	0.988124	-0.504788	1.01879	1.02743	-0.0949814	-0.0164205	0.47023	-0.0721505	0	0	0.506199	0.00551279	0.0581415	0.505869	-0.109532	0	0	0.772025	0.120718	-0.153985	0.287416	-0.434794	0.683908	1.17243	0.608764	0	0	-0.226545	-0.414305	-0.160396	1.22952	0.827613	0	0
0.28	0.226085	1.03396	1.54122	0.987823	-0.493306	1.01706	1.01087	-0.0884933	-0.00532549	0.39363	-0.0748293	0	0	0.500362	-0.000299143	0.056775	0.512274	-0.109464	0	0	0.776946	0.123188	-0.156293	0.286901	-0.436139	0.683915	1.17413	0.609127	0	0	-0.226764	-0.414804	-0.158579	1.22959	0.826779	0	0
0.29	0.228178	1.03537	1.53558	0.988417	-0.480998	1.01544	0.989667	-0.0792435	0.01187	0.318852	-0.0845739	0	0	0.489356	-0.00805359	0.0436933	0.518129	-0.110028	0	0	0.777881	0.126591	-0.153683	0.286446	-0.436137	0.684336	1.17499	0.608074	0	0	-0.227569	-0.417225	-0.156517	1.23038	0.826766	0	0
0.3	0.230491	1.03907	1.5315	0.988751	-0.468516	1.01388	0.968248	-0.0730066	0.0231219	0.257408	-0.0957331	0	0	0.476373	-0.0141537	0.0332978	0.525288	-0.110362	0	0	0.776086	0.128704	-0.151906	0.286259	-0.43597	0.684181	1.17569	0.607026	0	0	-0.228001	-0.419849	-0.154619	1.2319	0.825221	0	0
0.31	0.233929	1.04987	1.52495	0.989059	-0.455507	1.01293	0.946044	-0.0665283	0.0256683	0.222751	-0.100213	0	0	0.454676	-0.0212579	0.0185956	0.531763	-0.110129	0	0	0.765535	0.132677	-0.149201	0.288405	-0.435555	0.684505	1.17516	0.606133	0	0	-0.226295	-0.421443	-0.152969	1.23231	0.823295	0	0
0.32	0.238383	1.06115	1.51941	0.988923	-0.442584	1.012	0.932261	-0.06228	0.0181584	0.221348	-0.0951435	0	0	0.432768	-0.026518	0.00896599	0.538574	-0.109949	0	0	0.754775	0.13623	-0.148343	0.291238	-0.435491	0.685099	1.1744	0.605232	0	0	-0.224005	-0.421887	-0.151674	1.23192	0.821729	0	0
0.33	0.0859293	1.16687	1.5836	1.00516	-0.431636	1.01774	0.879525	-0.0412304	0.133389	0.324489	-0.0333336	0	0	0.295544	-0.00545434	-0.152311	0.522917	-0.125604	0	0	0.578684	0.105003	-0.0394073	0.339066	-0.383943	0.665198	1.1418	0.629717	0	0	-0.178521	-0.462868	-0.156839	1.24561	0.807899	0	0
0.34	0.0885919	1.1721	1.57968	1.00536	-0.418628	1.01589	0.886143	-0.03655	0.121251	0.377739	-0.0177216	0	0	0.280954	-0.00937333	-0.159431	0.532559	-0.126374	0	0	0.576366	0.107411	-0.0373695	0.336741	-0.384143	0.661543	1.14417	0.635456	0	0	-0.179476	-0.46464	-0.155429	1.24827	0.808383	0	0
0.35	0.0912361	1.17765	1.57463	1.00578	-0.405075	1.01397	0.892234	-0.0309916	0.11228	0.438259	-0.00179415	0	0	0.265839	-0.0144768	-0.169866	0.543321	-0.126283	0	0	0.575204	0.110517	-0.0355581	0.33548	-0.384877	0.662153	1.14607	0.635868	0	0	-0.183081	-0.466704	-0.154921	1.25187	0.807762	0	0
0.36	0.0932224	1.19104	1.56998	1.00653	-0.391219	1.01307	0.885764	-0.0250641	0.108901	0.49131	0.0127636	0	0	0.242495	-0.0204569	-0.182249	0.554036	-0.128327	0	0	0.563473	0.112795	-0.0330436	0.337236	-0.384166	0.663391	1.14575	0.635127	0	0	-0.184265	-0.469353	-0.154865	1.25519	0.804932	0	0
0.37	0.100459	1.20143	1.56466	1.00628	-0.377573	1.01205	0.878656	-0.022396	0.10269	0.532158	0.022134	0	0	0.225437	-0.025737	-0.183491	0.569043	-0.130001	0	0	0.556482	0.115323	-0.0352068	0.338651	-0.385178	0.665122	1.14673	0.629965	0	0	-0.185786	-0.47001	-0.154507	1.2575	0.803941	0	0
0.38	0.10982	1.21019	1.55834	1.00589	-0.363991	1.01108	0.871332	-0.0200927	0.0968893	0.560242	0.0221878	0	0	0.212578	-0.0310766	-0.179045	0.587918	-0.131506	0	0	0.551624	0.118773	-0.0382497	0.338514	-0.387416	0.667014	1.14732	0.630921	0	0	-0.186654	-0.469506	-0.153575	1.25791	0.803421	0	0
0.39	0.118976	1.21597	1.54984	1.00598	-0.350132	1.00999	0.865407	-0.0156635	0.0938588	0.576791	0.00928092	0	0	0.204617	-0.0375606	-0.175909	0.611017	-0.133453	0	0	0.551147	0.122714	-0.0394954	0.336596	-0.388833	0.668052	1.14835	0.630684	0	0	-0.189985	-0.469482	-0.153209	1.25925	0.80328	0	0
0.4	0.130078	1.21935	1.53844	1.00655	-0.336054	1.00894	0.857299	-0.00968107	0.0925494	0.580456	-0.0144908	0	0	0.202091	-0.0458879	-0.172303	0.640305	-0.135986	0	0	0.554499	0.127242	-0.0400031	0.332872	-0.389753	0.668793	1.14886	0.630208	0	0	-0.194624	-0.470025	-0.152341	1.26047	0.803177	0	0
